<?xml version="1.0" encoding="UTF-8"?>

<svg version="1.2" baseProfile="tiny" width="215.9mm" height="279.4mm" viewBox="0 0 21590 27940" preserveAspectRatio="xMidYMid" fill-rule="evenodd" stroke-width="28.222" stroke-linejoin="round" xmlns="http://www.w3.org/2000/svg" xmlns:xlink="http://www.w3.org/1999/xlink" xml:space="preserve">
 <g visibility="visible" id="MasterSlide_1_Default">
  <desc>Master slide
  </desc>
  <rect fill="none" stroke="none" x="0" y="0" width="21590" height="27940"/>
 </g>
 <g visibility="visible" id="Slide_1_page1">
  <g>
   <path fill="rgb(0,102,204)" stroke="none" d="M 3667,24622 L 1508,24622 1508,5318 5826,5318 5826,24622 3667,24622 Z"/>
   <path fill="none" stroke="rgb(0,102,204)" id="Drawing_1_0" stroke-linejoin="round" d="M 3667,24622 L 1508,24622 1508,5318 5826,5318 5826,24622 3667,24622 Z"/>
  </g>
  <g>
   <path fill="rgb(0,102,204)" stroke="none" d="M 8176,14880 C 6988,14880 5979,14680 4951,14239 3923,13799 3185,13252 2591,12490 1997,11727 1727,10979 1727,10099 1727,9219 1997,8471 2591,7709 3185,6946 3923,6399 4951,5959 5979,5518 6988,5318 8175,5318 9363,5318 10372,5518 11400,5959 12428,6399 13166,6946 13760,7708 14354,8471 14624,9219 14624,10099 14624,10979 14354,11727 13760,12489 13166,13252 12428,13799 11400,14239 10372,14680 9363,14880 8176,14880 L 8176,14880 Z"/>
   <path fill="none" stroke="rgb(0,102,204)" id="Drawing_2_0" stroke-linejoin="round" d="M 8176,14880 C 6988,14880 5979,14680 4951,14239 3923,13799 3185,13252 2591,12490 1997,11727 1727,10979 1727,10099 1727,9219 1997,8471 2591,7709 3185,6946 3923,6399 4951,5959 5979,5518 6988,5318 8175,5318 9363,5318 10372,5518 11400,5959 12428,6399 13166,6946 13760,7708 14354,8471 14624,9219 14624,10099 14624,10979 14354,11727 13760,12489 13166,13252 12428,13799 11400,14239 10372,14680 9363,14880 8176,14880 L 8176,14880 Z"/>
  </g>
  <g>
   <path fill="rgb(0,102,204)" stroke="none" d="M 8394,23225 C 7207,23225 6198,23025 5170,22584 4141,22144 3403,21597 2809,20835 2215,20072 1945,19324 1945,18444 1945,17564 2215,16816 2809,16054 3403,15291 4141,14744 5169,14304 6198,13863 7207,13663 8394,13663 9581,13663 10590,13863 11618,14304 12647,14744 13385,15291 13979,16053 14573,16816 14843,17564 14843,18444 14843,19324 14573,20072 13979,20834 13385,21597 12647,22144 11619,22584 10590,23025 9581,23225 8394,23225 L 8394,23225 Z"/>
   <path fill="none" stroke="rgb(0,102,204)" id="Drawing_3_0" stroke-linejoin="round" d="M 8394,23225 C 7207,23225 6198,23025 5170,22584 4141,22144 3403,21597 2809,20835 2215,20072 1945,19324 1945,18444 1945,17564 2215,16816 2809,16054 3403,15291 4141,14744 5169,14304 6198,13863 7207,13663 8394,13663 9581,13663 10590,13863 11618,14304 12647,14744 13385,15291 13979,16053 14573,16816 14843,17564 14843,18444 14843,19324 14573,20072 13979,20834 13385,21597 12647,22144 11619,22584 10590,23025 9581,23225 8394,23225 L 8394,23225 Z"/>
  </g>
  <g>
   <path fill="none" stroke="rgb(0,102,204)" id="Drawing_4_0" stroke-width="459" stroke-linejoin="round" d="M 13700,3286 L 20177,5064"/>
  </g>
  <g>
   <path fill="none" stroke="rgb(0,102,204)" id="Drawing_5_0" stroke-width="459" stroke-linejoin="round" d="M 13446,5953 L 19923,7731"/>
  </g>
  <g>
   <path fill="none" stroke="rgb(0,102,204)" id="Drawing_6_0" stroke-width="459" stroke-linejoin="round" d="M 15372,1762 L 15372,8366"/>
  </g>
  <g>
   <path fill="none" stroke="rgb(0,102,204)" id="Drawing_7_0" stroke-width="459" stroke-linejoin="round" d="M 18145,2397 L 18145,9001"/>
  </g>
  <g>
   <path fill="rgb(255,255,255)" stroke="none" d="M 8722,11924 C 8199,11924 7754,11833 7301,11633 6848,11433 6522,11184 6261,10838 5999,10491 5880,10151 5880,9751 5880,9351 5999,9011 6261,8665 6522,8318 6848,8069 7301,7869 7754,7669 8199,7578 8722,7578 9245,7578 9690,7669 10143,7869 10596,8069 10922,8318 11183,8664 11445,9011 11564,9351 11564,9751 11564,10151 11445,10491 11183,10837 10922,11184 10596,11433 10143,11633 9690,11833 9245,11924 8722,11924 L 8722,11924 Z"/>
   <path fill="none" stroke="rgb(0,102,204)" id="Drawing_8_0" stroke-linejoin="round" d="M 8722,11924 C 8199,11924 7754,11833 7301,11633 6848,11433 6522,11184 6261,10838 5999,10491 5880,10151 5880,9751 5880,9351 5999,9011 6261,8665 6522,8318 6848,8069 7301,7869 7754,7669 8199,7578 8722,7578 9245,7578 9690,7669 10143,7869 10596,8069 10922,8318 11183,8664 11445,9011 11564,9351 11564,9751 11564,10151 11445,10491 11183,10837 10922,11184 10596,11433 10143,11633 9690,11833 9245,11924 8722,11924 L 8722,11924 Z"/>
  </g>
  <g>
   <path fill="rgb(255,255,255)" stroke="none" d="M 8722,20617 C 8199,20617 7754,20526 7301,20326 6848,20126 6522,19877 6261,19531 5999,19184 5880,18844 5880,18444 5880,18044 5999,17704 6261,17358 6522,17011 6848,16762 7301,16562 7754,16362 8199,16271 8722,16271 9245,16271 9690,16362 10143,16562 10596,16762 10922,17011 11183,17358 11445,17704 11564,18044 11564,18444 11564,18844 11445,19184 11183,19531 10922,19877 10596,20126 10143,20326 9690,20526 9245,20617 8722,20617 L 8722,20617 Z"/>
   <path fill="none" stroke="rgb(0,102,204)" id="Drawing_9_0" stroke-linejoin="round" d="M 8722,20617 C 8199,20617 7754,20526 7301,20326 6848,20126 6522,19877 6261,19531 5999,19184 5880,18844 5880,18444 5880,18044 5999,17704 6261,17358 6522,17011 6848,16762 7301,16562 7754,16362 8199,16271 8722,16271 9245,16271 9690,16362 10143,16562 10596,16762 10922,17011 11183,17358 11445,17704 11564,18044 11564,18444 11564,18844 11445,19184 11183,19531 10922,19877 10596,20126 10143,20326 9690,20526 9245,20617 8722,20617 L 8722,20617 Z"/>
  </g>
  <g>
   <path fill="rgb(0,102,204)" stroke="none" d="M 5128,5953 L 1635,5953 1635,5318 8620,5318 8620,5953 5128,5953 Z"/>
   <path fill="none" stroke="rgb(0,102,204)" id="Drawing_10_0" stroke-linejoin="round" d="M 5128,5953 L 1635,5953 1635,5318 8620,5318 8620,5953 5128,5953 Z"/>
  </g>
 </g>
</svg>